PathFileType	4	(X/Y/Z)	c:/Users/goper/Files/vsCode/490R/osim_files/C08/C08_SSWS_05.trc
DataRate	CameraRate	NumFrames	NumMarkers	Units                	OrigDataRate	OrigDataStartFrame	OrigNumFrames
250.00	250.00	7	36	mm	250.0	2222	3554
                Frame#	Time	LPSIS			LASIS			LTH1			LTH2			LTH3			LTH4			LLFE			LMFE			LSH1			LSH2			LSH3			LSH4			LLMAL			LMMAL			LCAL			LMTP5			LTOE			LMTP1			RPSIS			RASIS			RTH1			RTH2			RTH3			RTH4			RLFE			RMFE			RSH1			RSH2			RSH3			RSH4			RLMAL			RMMAL			RCAL			RMTP1			RTOE			RMTP5		
		X1	Y1	Z1	X2	Y2	Z2	X3	Y3	Z3	X4	Y4	Z4	X5	Y5	Z5	X6	Y6	Z6	X7	Y7	Z7	X8	Y8	Z8	X9	Y9	Z9	X10	Y10	Z10	X11	Y11	Z11	X12	Y12	Z12	X13	Y13	Z13	X14	Y14	Z14	X15	Y15	Z15	X16	Y16	Z16	X17	Y17	Z17	X18	Y18	Z18	X19	Y19	Z19	X20	Y20	Z20	X21	Y21	Z21	X22	Y22	Z22	X23	Y23	Z23	X24	Y24	Z24	X25	Y25	Z25	X26	Y26	Z26	X27	Y27	Z27	X28	Y28	Z28	X29	Y29	Z29	X30	Y30	Z30	X31	Y31	Z31	X32	Y32	Z32	X33	Y33	Z33	X34	Y34	Z34	X35	Y35	Z35	X36	Y36	Z36

2222	8.88400	-1502.52832	740.96332	2792.04565	-4330.30371	1004.41046	343.57956	0.00000	0.00000	0.00000	0.00000	0.00000	0.00000	-3926.20361	212.87804	314.94022	0.00000	0.00000	0.00000	-3964.24634	81.44872	342.01862	0.00000	0.00000	0.00000	0.00000	0.00000	0.00000	0.00000	0.00000	0.00000	0.00000	0.00000	0.00000	0.00000	0.00000	0.00000	0.00000	0.00000	0.00000	-3973.94165	206.19769	238.29996	-3886.11938	242.30368	261.04587	0.00000	0.00000	0.00000	-4365.16406	1021.48181	112.88004	0.00000	0.00000	0.00000	0.00000	0.00000	0.00000	0.00000	0.00000	0.00000	-4347.89941	755.80353	40.13728	-4363.64648	679.40045	57.64404	-4378.40820	602.26453	64.27164	-4433.95996	699.45953	90.17125	-4397.78369	534.01373	83.16019	0.00000	0.00000	0.00000	-4354.75342	446.10150	57.01530	0.00000	0.00000	0.00000	-4412.84717	450.61969	74.74351	-4415.91406	406.09955	68.07129	0.00000	0.00000	0.00000	-4179.01416	194.44629	300.91605	0.00000	0.00000	0.00000	0.00000	0.00000	0.00000	0.00000	0.00000	0.00000	0.00000	0.00000	0.00000
2223	8.88800	-1502.52441	741.01031	2792.03442	-4333.27539	1004.60229	343.63293	0.00000	0.00000	0.00000	-4236.54150	721.18481	410.11902	0.00000	0.00000	0.00000	0.00000	0.00000	0.00000	0.00000	0.00000	0.00000	0.00000	0.00000	0.00000	-3926.84253	217.38361	313.47516	0.00000	0.00000	0.00000	0.00000	0.00000	0.00000	0.00000	0.00000	0.00000	0.00000	0.00000	0.00000	-3979.86133	208.39796	238.37605	-3892.29224	245.24278	260.41013	0.00000	0.00000	0.00000	-4368.97607	1021.58179	112.95373	0.00000	0.00000	0.00000	0.00000	0.00000	0.00000	0.00000	0.00000	0.00000	-4350.52441	756.10333	39.78029	-4365.80859	679.57306	57.26598	-4380.06445	602.40631	63.78492	-4436.23193	699.20648	89.67028	-4399.11865	534.00500	82.74629	0.00000	0.00000	0.00000	-4355.76172	446.16141	56.75567	0.00000	0.00000	0.00000	-4413.96143	450.54367	74.38803	-4416.88623	406.01196	67.72906	0.00000	0.00000	0.00000	-4179.24463	192.98372	301.93417	0.00000	0.00000	0.00000	0.00000	0.00000	0.00000	-3757.17847	159.44051	400.03363	0.00000	0.00000	0.00000
2224	8.89200	-1502.54907	740.94360	2792.04126	-4336.16455	1004.73853	343.70712	0.00000	0.00000	0.00000	-4241.39746	721.43854	410.43005	0.00000	0.00000	0.00000	0.00000	0.00000	0.00000	0.00000	0.00000	0.00000	0.00000	0.00000	0.00000	0.00000	0.00000	0.00000	-3932.56812	220.26559	313.36371	0.00000	0.00000	0.00000	0.00000	0.00000	0.00000	0.00000	0.00000	0.00000	-3986.02588	210.50430	238.46327	-3898.45117	247.80257	259.88376	0.00000	0.00000	0.00000	-4372.76709	1021.62506	113.06721	0.00000	0.00000	0.00000	0.00000	0.00000	0.00000	0.00000	0.00000	0.00000	-4353.04199	756.29907	39.44138	-4367.86963	679.72229	56.88222	-4381.57520	602.44098	63.32904	-4438.51367	698.96722	89.18719	-4400.37061	533.98419	82.29408	0.00000	0.00000	0.00000	-4356.81543	446.26398	56.44438	0.00000	0.00000	0.00000	-4415.00830	450.45816	74.00214	-4417.77246	405.88950	67.40242	0.00000	0.00000	0.00000	-4179.50586	191.34364	302.98926	0.00000	0.00000	0.00000	0.00000	0.00000	0.00000	0.00000	0.00000	0.00000	0.00000	0.00000	0.00000
2225	8.89600	-1502.55884	740.92285	2792.02319	-4339.05078	1004.89417	343.86243	0.00000	0.00000	0.00000	-4241.04248	720.75000	408.47565	0.00000	0.00000	0.00000	0.00000	0.00000	0.00000	0.00000	0.00000	0.00000	0.00000	0.00000	0.00000	-3943.84375	220.94646	315.39175	0.00000	0.00000	0.00000	0.00000	0.00000	0.00000	0.00000	0.00000	0.00000	0.00000	0.00000	0.00000	-3992.34229	212.52957	238.52483	-3904.80542	250.09326	259.20370	0.00000	0.00000	0.00000	-4376.54932	1021.64081	113.14938	0.00000	0.00000	0.00000	0.00000	0.00000	0.00000	0.00000	0.00000	0.00000	-4355.56738	756.61841	39.07589	-4369.89453	679.90613	56.50986	-4383.10010	602.59161	62.85583	-4440.67969	698.69958	88.74705	-4401.52295	533.94318	81.82356	0.00000	0.00000	0.00000	-4357.74463	446.28003	56.11254	0.00000	0.00000	0.00000	-4415.99072	450.36942	73.64117	-4418.63477	405.79199	67.08404	0.00000	0.00000	0.00000	-4179.68994	189.40401	304.17783	0.00000	0.00000	0.00000	0.00000	0.00000	0.00000	-3978.42261	90.07422	343.51538	0.00000	0.00000	0.00000
2226	8.90000	-1502.50818	740.92627	2792.04883	-4341.89600	1005.05225	344.05200	0.00000	0.00000	0.00000	0.00000	0.00000	0.00000	-4250.51562	722.00049	411.01901	0.00000	0.00000	0.00000	-3949.53833	223.58383	314.54565	0.00000	0.00000	0.00000	0.00000	0.00000	0.00000	0.00000	0.00000	0.00000	0.00000	0.00000	0.00000	0.00000	0.00000	0.00000	0.00000	0.00000	0.00000	-3998.86035	214.40753	238.58827	-3911.35107	252.19398	258.52835	0.00000	0.00000	0.00000	-4380.30371	1021.62744	113.26127	0.00000	0.00000	0.00000	0.00000	0.00000	0.00000	0.00000	0.00000	0.00000	-4358.00635	756.87054	38.74437	-4371.91748	680.11969	56.12987	-4384.45117	602.67377	62.42466	-4442.75928	698.44550	88.31659	-4402.61719	533.91351	81.36596	0.00000	0.00000	0.00000	-4358.69727	446.33661	55.79401	0.00000	0.00000	0.00000	-4416.97705	450.29773	73.28187	-4419.45605	405.69019	66.78837	0.00000	0.00000	0.00000	-4179.87061	187.23889	305.45984	0.00000	0.00000	0.00000	0.00000	0.00000	0.00000	0.00000	0.00000	0.00000	0.00000	0.00000	0.00000
2227	8.90400	-1502.41040	740.91559	2792.13379	-4344.73975	1005.21167	344.29642	0.00000	0.00000	0.00000	-4255.08203	722.44373	411.22382	0.00000	0.00000	0.00000	0.00000	0.00000	0.00000	0.00000	0.00000	0.00000	0.00000	0.00000	0.00000	-3951.18359	227.48444	313.12869	0.00000	0.00000	0.00000	0.00000	0.00000	0.00000	0.00000	0.00000	0.00000	0.00000	0.00000	0.00000	-4005.58911	216.06650	238.68776	-3918.01001	254.09064	257.84390	0.00000	0.00000	0.00000	-4384.04346	1021.61176	113.33498	0.00000	0.00000	0.00000	0.00000	0.00000	0.00000	0.00000	0.00000	0.00000	-4360.41504	757.15167	38.40967	-4373.84717	680.30139	55.78305	-4385.90527	602.78687	61.98337	-4444.82812	698.20233	87.93311	-4403.65332	533.85107	80.96152	0.00000	0.00000	0.00000	-4359.60059	446.40573	55.46599	0.00000	0.00000	0.00000	-4417.87207	450.17889	72.94243	0.00000	0.00000	0.00000	0.00000	0.00000	0.00000	-4180.06396	184.92705	306.79181	0.00000	0.00000	0.00000	0.00000	0.00000	0.00000	-3991.20801	95.32171	346.48343	0.00000	0.00000	0.00000
2228	8.90800	-1502.43787	740.89520	2792.12085	-4347.57861	1005.36749	344.60638	0.00000	0.00000	0.00000	0.00000	0.00000	0.00000	0.00000	0.00000	0.00000	0.00000	0.00000	0.00000	0.00000	0.00000	0.00000	0.00000	0.00000	0.00000	0.00000	0.00000	0.00000	0.00000	0.00000	0.00000	0.00000	0.00000	0.00000	0.00000	0.00000	0.00000	0.00000	0.00000	0.00000	-4012.47412	217.49104	238.82547	-3921.33618	256.57553	253.81642	0.00000	0.00000	0.00000	-4387.76758	1021.59827	113.37656	0.00000	0.00000	0.00000	0.00000	0.00000	0.00000	0.00000	0.00000	0.00000	-4362.84912	757.44507	38.08447	-4375.79297	680.51294	55.42971	-4387.35791	602.98724	61.51149	-4446.89648	697.99890	87.56699	-4404.69678	533.80872	80.57155	0.00000	0.00000	0.00000	-4360.55322	446.45526	55.18988	0.00000	0.00000	0.00000	-4418.83398	450.13611	72.63647	0.00000	0.00000	0.00000	0.00000	0.00000	0.00000	0.00000	0.00000	0.00000	0.00000	0.00000	0.00000	0.00000	0.00000	0.00000	0.00000	0.00000	0.00000	0.00000	0.00000	0.00000
